<?xml version="1.0" encoding="iso-8859-1"?>
<!-- Generator: Adobe Illustrator 16.0.0, SVG Export Plug-In . SVG Version: 6.00 Build 0)  -->
<!DOCTYPE svg PUBLIC "-//W3C//DTD SVG 1.1//EN" "http://www.w3.org/Graphics/SVG/1.1/DTD/svg11.dtd">
<svg version="1.1" id="Capa_1" xmlns="http://www.w3.org/2000/svg" xmlns:xlink="http://www.w3.org/1999/xlink" x="0px" y="0px"
	 width="478.157px" height="478.156px" viewBox="0 0 478.157 478.156" style="enable-background:new 0 0 478.157 478.156;"
	 xml:space="preserve">
<g>
	<g>
		<path d="M124.301,389.911c-8.396-3.051-17.674,1.28-20.73,9.675c-3.052,8.396,1.279,17.672,9.675,20.729
			c8.394,3.052,17.671-1.279,20.723-9.675C137.025,402.246,132.695,392.969,124.301,389.911z"/>
		<path d="M421.284,76.573l-36.346-13.217c-6.305-2.293-13.262,0.965-15.554,7.257l-3.342,9.189l-60.05-21.837l3.929-10.8
			c2.287-6.297-0.964-13.259-7.263-15.551L217.757,0.735c-1.506-0.539-3.11-0.823-4.711-0.71L98.132,5.386
			c-5.783,0.272-10.564,4.579-11.434,10.296c-0.872,5.717,2.416,11.25,7.851,13.229l88.367,32.127l-23.414,64.386
			c-2.287,6.298,0.967,13.264,7.263,15.551l9.526,3.465l-14.561,40.049c-21.524,3.413-40.092,18.365-47.657,39.177L52.567,392.814
			c-5.538,15.22-4.811,31.7,2.039,46.381c6.854,14.682,19.011,25.817,34.243,31.357l10.824,3.939
			c7.013,2.548,14.317,3.78,21.725,3.655c24.971-0.408,47.484-16.464,56.019-39.937l61.514-169.141
			c7.803-21.464,2.672-44.521-11.362-60.642l14.561-40.042l9.538,3.465c1.436,0.521,2.903,0.759,4.343,0.735
			c4.883-0.083,9.438-3.134,11.205-7.992l15.516-42.662l60.051,21.837l-2.507,6.902c-1.104,3.027-0.955,6.362,0.407,9.277
			c1.355,2.915,3.82,5.172,6.849,6.274l36.346,13.217c1.436,0.522,2.903,0.759,4.343,0.735c4.883-0.083,9.438-3.134,11.209-7.992
			l29.112-80.062C430.827,85.827,427.58,78.866,421.284,76.573z M216.122,260.772l-61.506,169.146
			c-5.124,14.088-18.633,23.723-33.622,23.971c-4.426,0.07-8.815-0.67-13.026-2.203l-10.824-3.94
			c-9.142-3.316-16.434-10-20.545-18.809c-4.111-8.812-4.55-18.691-1.221-27.833l61.499-169.135
			c5.125-14.094,18.639-23.727,33.623-23.976c4.423-0.071,8.808,0.67,13.026,2.204l10.87,3.952
			C213.231,221.025,222.977,241.933,216.122,260.772z M207.347,193.034l-4.687-1.706c-0.005,0-0.01-0.006-0.018-0.006l-3.648-1.327
			l-11.879-4.319l11.979-32.939l20.231,7.358L207.347,193.034z M279.62,94.986c-6.299-2.293-13.26,0.96-15.552,7.258l-15.512,42.655
			l-9.497-3.454c-0.01-0.006-0.022-0.012-0.042-0.018l-43.034-15.646c-0.012-0.006-0.029-0.006-0.041-0.012l-9.484-3.448
			l23.414-64.386c1.096-3.027,0.952-6.363-0.409-9.278c-1.364-2.92-3.829-5.178-6.85-6.274l-42.851-15.581l51.987-2.429
			l71.215,25.901l-3.926,10.8c-2.287,6.297,0.959,13.259,7.256,15.551l71.454,25.978l-4.566,12.566l-2.109,5.8L279.62,94.986z
			 M380.765,152.494l-13.541-4.923l2.511-6.908l0,0L384.708,99.5c0-0.006,0-0.012,0-0.018l3.342-9.178l13.535,4.923L380.765,152.494
			z"/>
	</g>
</g>
<g>
</g>
<g>
</g>
<g>
</g>
<g>
</g>
<g>
</g>
<g>
</g>
<g>
</g>
<g>
</g>
<g>
</g>
<g>
</g>
<g>
</g>
<g>
</g>
<g>
</g>
<g>
</g>
<g>
</g>
</svg>
